:SAMPLES-PER-SECOND 30
:FULLY-SPECIFIED
:DEGREES
285
root  1.49219 34.1781 17.913 5.25149 33.1127 0.218165
LeftUpLeg  -7.39896 7.85535 1.8779
LeftLeg  11.8328 2.54315 0.36276
LeftFoot  -0.963185 -0.00180741 -0.0360274
LeftToes  -17.0029 1.92152e-006 4.03786e-008
Spine  1.88316 1.48018 -0.594841
Spine1  3.56139 3.17021 -1.2973
RightShoulder  0.0398569 2.14289 6.15635
RightArm  -18.7034 -11.7885 67.2094
RightForeArm  28.7073 66.2529 23.7708
RightHand  1.95993 -11.2227 -19.3712
LeftShoulder1  0.0157708 1.38578 -9.75673
LeftArm  -21.9601 20.9177 -68.6181
LeftForeArm  26.3469 -14.8941 -2.68352
LeftHand  0.221076 6.10407 3.7703
HEad  -5.32762 -26.9001 1.85266
RightUpLeg  -9.31559 -10.2162 -6.86988
RightLeg  6.39794 -4.54276 -0.21327
RightFoot  9.09238 0.0831629 -0.668274
RightToes  -36.3833 -0.185429 -0.287482
286
root  1.47764 34.1735 17.8911 5.11331 32.0201 0.151714
LeftUpLeg  -7.2717 8.12674 1.90602
LeftLeg  12.0135 3.30858 0.482871
LeftFoot  -1.14503 -0.001245 -0.0595439
LeftToes  -16.6999 1.92152e-006 4.03786e-008
Spine  1.88797 1.51377 -0.693369
Spine1  3.55598 3.2297 -1.4756
RightShoulder  0.0403626 2.21737 6.01679
RightArm  -18.9218 -11.6537 67.96
RightForeArm  30.8988 67.3722 25.1869
RightHand  1.90516 -11.0022 -19.2095
LeftShoulder1  0.0167775 1.34806 -9.83538
LeftArm  -22.6191 20.3834 -68.2494
LeftForeArm  25.9683 -15.1494 -2.73182
LeftHand  0.238635 5.99393 4.18087
HEad  -5.60621 -26.3977 1.68394
RightUpLeg  -9.60626 -10.3009 -6.75193
RightLeg  6.61519 -3.38694 -0.171668
RightFoot  9.05362 0.0680348 -0.48172
RightToes  -36.2291 -0.184494 -0.286336
287
root  1.45161 34.1697 17.8726 4.98073 31.2137 0.0918406
LeftUpLeg  -7.11442 8.29311 1.95391
LeftLeg  12.0272 3.93101 0.574796
LeftFoot  -1.20009 -0.000789188 -0.075362
LeftToes  -16.6798 1.92152e-006 4.03786e-008
Spine  1.86308 1.49615 -0.790329
Spine1  3.48526 3.18836 -1.65118
RightShoulder  0.0414833 2.2707 5.90985
RightArm  -19.1753 -10.3868 69.4119
RightForeArm  31.7281 67.2496 25.0257
RightHand  1.86441 -10.6505 -19.4223
LeftShoulder1  0.0181712 1.33518 -9.82413
LeftArm  -23.1413 19.8122 -67.9189
LeftForeArm  25.4146 -15.6276 -2.82252
LeftHand  0.249812 5.90052 4.46915
HEad  -5.60253 -25.9035 1.53898
RightUpLeg  -9.78712 -9.89365 -6.66106
RightLeg  6.73904 -2.98566 -0.157672
RightFoot  9.0643 0.0622564 -0.417541
RightToes  -36.099 -0.1836 -0.285242
288
root  1.42119 34.1646 17.8528 4.84148 30.6825 0.0197474
LeftUpLeg  -6.97006 8.2541 2.02186
LeftLeg  11.9891 4.49061 0.653614
LeftFoot  -1.2302 -0.00031961 -0.0884442
LeftToes  -16.7051 1.92152e-006 4.03786e-008
Spine  1.83395 1.46803 -0.881657
Spine1  3.39581 3.1312 -1.81764
RightShoulder  0.0430162 2.31486 5.89316
RightArm  -19.2525 -8.19361 71.2315
RightForeArm  32.6952 66.8012 24.4489
RightHand  1.80903 -10.3367 -19.4205
LeftShoulder1  0.0214987 1.27276 -9.85155
LeftArm  -23.198 19.1276 -67.5071
LeftForeArm  24.9287 -16.2621 -2.94348
LeftHand  0.248208 5.75207 4.5621
HEad  -5.50189 -25.7266 1.47775
RightUpLeg  -9.92556 -9.63793 -6.5637
RightLeg  6.8884 -2.68248 -0.148553
RightFoot  9.06508 0.0574692 -0.366121
RightToes  -35.9643 -0.182746 -0.284197
289
root  1.39716 34.1596 17.8272 4.74049 30.3853 -0.0433261
LeftUpLeg  -6.85434 8.27809 2.07852
LeftLeg  11.8562 4.76237 0.681905
LeftFoot  -1.18876 -0.000736686 -0.0887158
LeftToes  -16.7479 1.92152e-006 4.03786e-008
Spine  1.80157 1.46952 -0.971796
Spine1  3.29598 3.13241 -1.97562
RightShoulder  0.0446752 2.23906 5.76029
RightArm  -18.294 -5.30224 73.3496
RightForeArm  34.5561 66.4431 24.0052
RightHand  1.76671 -10.5113 -18.6494
LeftShoulder1  0.0254339 1.19951 -9.89777
LeftArm  -22.8724 18.2428 -67.0941
LeftForeArm  24.4567 -16.9271 -3.07111
LeftHand  0.242527 5.54603 4.62826
HEad  -5.43352 -26.0285 1.39498
RightUpLeg  -10.0113 -9.48497 -6.48897
RightLeg  6.96111 -2.52414 -0.142925
RightFoot  9.05922 0.0542829 -0.336722
RightToes  -35.725 -0.181931 -0.283201
